<svg version="1.1" id="Layer_1" xmlns="http://www.w3.org/2000/svg" xmlns:xlink="http://www.w3.org/1999/xlink" x="0px" y="0px"
	 width="100%" viewBox="0 0 88 75" enable-background="new 0 0 88 75" xml:space="preserve">
<path fill="#FFFFFF" opacity="1.000000" stroke="none" 
	d="
M57.000000,76.000000 
	C38.000004,76.000000 19.500006,76.000000 1.000007,76.000000 
	C1.000005,51.000008 1.000005,26.000015 1.000003,1.000018 
	C30.333321,1.000012 59.666641,1.000012 88.999969,1.000006 
	C88.999985,25.999983 88.999985,50.999966 88.999992,75.999969 
	C78.500000,76.000000 68.000000,76.000000 57.000000,76.000000 
M5.740250,41.995956 
	C6.495914,41.946404 7.251578,41.896851 8.891251,41.982960 
	C10.479418,41.982960 12.067586,41.982960 14.130417,41.982960 
	C14.130417,53.280968 14.130417,64.081291 14.130417,75.072273 
	C16.095781,74.955498 17.566906,74.868088 19.961466,74.905869 
	C25.635952,74.865082 31.310438,74.824295 37.516182,74.903946 
	C37.605289,74.598541 37.694393,74.293137 37.907536,73.059494 
	C37.912846,66.482025 38.002106,59.902981 37.878429,53.327942 
	C37.834496,50.992207 38.233616,49.490852 41.877369,49.975098 
	C45.143993,49.975098 48.410622,49.975098 52.101707,49.975098 
	C52.101707,58.583096 52.101707,66.633087 52.101707,74.806770 
	C57.824734,74.806770 63.102066,74.806770 69.277885,74.939552 
	C71.072266,74.895782 72.866653,74.852005 75.105240,74.963936 
	C75.339539,74.529999 75.573837,74.096054 75.933388,72.895844 
	C75.891014,63.933884 75.848648,54.971924 75.968849,45.206627 
	C75.630188,42.873241 76.456795,41.584866 79.518021,41.982475 
	C80.054428,41.931938 80.590828,41.881401 81.877838,41.960140 
	C83.376144,41.840702 84.874458,41.721268 86.821754,41.944111 
	C87.157776,41.629284 87.493797,41.314457 87.964867,40.359962 
	C87.346214,39.559063 86.727562,38.758167 85.846390,37.333916 
	C84.245476,36.184566 82.644554,35.035217 80.783325,33.274467 
	C69.192680,22.903845 57.602036,12.533222 45.337166,2.009628 
	C44.882019,2.060899 44.426876,2.112170 43.448551,2.115387 
	C43.260262,2.399666 43.071976,2.683946 42.262981,3.206968 
	C33.834583,10.856025 25.406185,18.505083 16.448540,26.103065 
	C16.252880,26.388083 16.057220,26.673100 15.267136,27.197525 
	C13.829854,28.756329 12.392572,30.315134 10.328977,32.163956 
	C7.894342,34.273174 5.257947,36.195236 3.080286,38.542824 
	C0.778570,41.024143 1.540721,42.370098 5.740250,41.995956 
z"/>
<path fill="#484848" opacity="1.000000" stroke="none" 
	d="
M86.372765,41.601833 
	C84.874458,41.721268 83.376144,41.840702 81.429276,41.573135 
	C80.318947,41.401360 79.657166,41.616581 78.995392,41.831802 
	C76.456795,41.584866 75.630188,42.873241 75.530434,45.601524 
	C70.723419,44.995037 66.354813,43.993656 61.945377,42.629715 
	C61.606556,40.847931 61.308571,39.428699 61.054173,37.743927 
	C61.134422,37.302765 61.171082,37.127151 61.552238,36.954781 
	C62.543156,36.451054 63.189575,35.944084 63.835995,35.437115 
	C62.991692,34.956001 62.147385,34.474884 61.227898,33.986954 
	C61.152718,33.980133 61.002972,33.999401 61.022957,33.556435 
	C61.114033,30.754662 61.185123,28.395851 61.554955,26.066994 
	C62.795387,26.506147 63.737087,26.915346 65.424126,27.648420 
	C64.259270,24.958122 64.196045,22.021547 61.021885,24.602644 
	C58.113247,21.754356 55.251259,19.267756 52.294392,16.428139 
	C49.802711,14.037941 47.405910,12.000761 45.166573,9.604990 
	C45.553154,6.885134 45.782272,4.523867 46.011391,2.162600 
	C57.602036,12.533222 69.192680,22.903845 80.934731,33.945885 
	C82.760391,35.730629 84.434654,36.843952 86.108910,37.957272 
	C86.727562,38.758167 87.346214,39.559063 87.510551,40.775841 
	C86.828415,41.328426 86.600586,41.465130 86.372765,41.601833 
M75.556816,39.004105 
	C76.590851,38.798569 77.624893,38.593033 79.831604,38.154400 
	C75.057747,34.195805 71.145813,30.951931 67.233871,27.708055 
	C66.623474,28.102453 66.013069,28.496849 65.402672,28.891247 
	C71.063858,32.412453 73.142563,36.771725 69.728523,42.416008 
	C71.422829,41.287106 73.117134,40.158199 75.556816,39.004105 
z"/>
<path fill="#3F3F3F" opacity="1.000000" stroke="none" 
	d="
M61.986214,42.992271 
	C66.354813,43.993656 70.723419,44.995037 75.449142,46.003193 
	C75.848648,54.971924 75.891014,63.933884 75.547714,73.529198 
	C74.995026,74.377777 74.828026,74.593002 74.661034,74.808228 
	C72.866653,74.852005 71.072266,74.895782 69.016991,74.451080 
	C69.166519,72.599030 69.576942,71.235458 70.123344,69.420120 
	C66.901306,69.129875 64.209862,68.887428 61.008221,68.599030 
	C61.008221,66.545319 61.008221,64.777710 61.009136,62.540909 
	C61.335438,55.711903 61.660828,49.352085 61.986214,42.992271 
z"/>
<path fill="#4D4D4D" opacity="1.000000" stroke="none" 
	d="
M61.008221,63.010098 
	C61.008221,64.777710 61.008221,66.545319 61.008221,68.599030 
	C64.209862,68.887428 66.901306,69.129875 70.123344,69.420120 
	C69.576942,71.235458 69.166519,72.599030 68.567749,74.384689 
	C63.102066,74.806770 57.824734,74.806770 52.101707,74.806770 
	C52.101707,66.633087 52.101707,58.583096 52.101707,49.975098 
	C48.410622,49.975098 45.143993,49.975098 41.367756,49.528309 
	C39.235596,48.394325 37.613052,47.707127 35.991261,46.756599 
	C35.995232,46.317875 35.998451,46.142483 36.101517,45.755974 
	C36.389736,45.282928 36.636536,45.099659 37.413651,45.000546 
	C42.559406,45.000488 47.233280,44.994946 52.177956,44.989204 
	C52.629292,44.990524 52.809822,44.992031 53.162994,45.239014 
	C53.897091,45.655083 54.458549,45.825668 55.008968,45.999031 
	C54.997932,46.001804 55.004280,45.979919 55.002090,46.347290 
	C55.328621,47.809792 55.657345,48.904915 55.986618,50.449890 
	C55.660027,56.125942 55.164455,61.350880 55.125370,66.579231 
	C55.115723,67.869995 56.590172,69.171860 57.032902,69.896553 
	C57.032902,64.208870 57.032902,58.591991 57.416840,53.074326 
	C58.199883,55.170345 58.454945,57.211189 59.047230,59.148952 
	C59.462860,60.508759 60.338181,61.728054 61.008221,63.010098 
z"/>
<path fill="#303030" opacity="1.000000" stroke="none" 
	d="
M35.990505,47.019932 
	C37.613052,47.707127 39.235596,48.394325 40.911461,49.432755 
	C38.233616,49.490852 37.834496,50.992207 37.878429,53.327942 
	C38.002106,59.902981 37.912846,66.482025 37.662605,73.599121 
	C37.189098,74.297058 37.044846,74.511978 36.984924,74.783508 
	C31.310438,74.824295 25.635952,74.865082 19.547411,74.520866 
	C19.954964,72.388817 21.948561,70.588249 19.249844,69.011932 
	C20.288830,68.997765 20.977587,68.989632 21.770332,69.017441 
	C21.874317,69.053383 22.094347,69.050728 22.242107,69.443794 
	C25.257536,69.884438 28.125202,69.932022 31.142570,70.218559 
	C31.736122,70.310760 32.179970,70.164009 32.623817,70.017258 
	C32.063038,69.691422 31.502258,69.365593 30.962860,69.039650 
	C30.984241,69.039536 30.947290,69.066917 30.966995,68.684402 
	C31.000740,67.536018 31.014780,66.770134 31.420067,65.910309 
	C31.881769,60.882816 31.952229,55.949284 32.228230,50.889343 
	C32.416859,50.404079 32.399944,50.045219 32.383030,49.686359 
	C32.247169,50.116009 32.111313,50.545662 31.746914,50.980545 
	C31.518373,50.985779 31.061172,50.986320 31.033661,50.731819 
	C30.985094,50.307964 30.964041,50.138615 30.959084,49.534561 
	C30.955061,47.059525 30.934942,45.019196 30.956884,42.736885 
	C30.998945,42.494907 31.050034,42.006359 31.277025,42.004356 
	C31.504017,42.002357 31.958002,42.006302 31.968693,42.380764 
	C31.979385,44.158871 31.979385,45.562515 31.979385,47.387424 
	C32.943001,46.677586 33.431595,46.317669 34.202980,45.964314 
	C34.674015,45.959629 34.862255,45.948376 35.049911,45.954659 
	C35.049320,45.972191 35.065990,45.929806 35.051010,46.167038 
	C35.354187,46.609489 35.672348,46.814713 35.990505,47.019932 
z"/>
<path fill="#525252" opacity="1.000000" stroke="none" 
	d="
M45.674278,2.086113 
	C45.782272,4.523867 45.553154,6.885134 44.928093,9.648430 
	C44.532154,10.050459 44.048618,10.081973 43.956436,9.901349 
	C43.592621,9.839307 43.320988,9.957888 43.027836,10.052904 
	C43.006317,10.029340 43.046951,10.065944 42.740845,10.064943 
	C41.969440,10.400375 41.504139,10.736807 41.024811,11.037833 
	C41.010788,11.002428 41.073036,11.046316 40.772369,11.161659 
	C38.084240,15.535551 36.130253,20.176559 30.695297,22.027683 
	C29.926804,22.372845 29.461582,22.704216 28.998623,23.017279 
	C29.000881,22.998970 29.038368,23.010277 28.683111,23.028725 
	C24.519848,26.024137 20.711842,29.001102 16.554211,32.026630 
	C14.451158,32.103687 12.532907,36.431194 10.955290,31.873940 
	C12.392572,30.315134 13.829854,28.756329 15.792601,27.008690 
	C16.620205,26.679453 16.840113,26.457546 16.977787,26.154140 
	C25.406185,18.505083 33.834583,10.856025 42.794621,3.012008 
	C43.622650,2.679407 43.837807,2.461539 43.971729,2.163442 
	C44.426876,2.112170 44.882019,2.060899 45.674278,2.086113 
M34.649200,16.329575 
	C34.529705,16.578127 34.410210,16.826679 34.290714,17.075232 
	C34.528698,17.147062 34.766682,17.218895 35.004665,17.290726 
	C35.031067,16.948685 35.057468,16.606644 34.649200,16.329575 
z"/>
<path fill="#4D4D4D" opacity="1.000000" stroke="none" 
	d="
M10.642134,32.018948 
	C12.532907,36.431194 14.451158,32.103687 16.683056,32.249550 
	C17.440029,32.612579 17.718534,32.801250 17.889942,33.252602 
	C17.537405,34.023693 17.291964,34.532112 17.027687,35.024529 
	C17.008850,35.008526 17.024658,35.055275 16.787369,35.045563 
	C16.383005,35.370369 16.215933,35.704895 15.921911,36.250931 
	C15.578415,36.724689 15.306727,36.902866 14.654041,37.029396 
	C13.818886,37.850796 13.309589,38.639771 12.800293,39.428745 
	C14.191581,39.950886 15.582869,40.473026 17.117069,41.315296 
	C17.494101,42.760845 17.728220,43.886269 17.958479,45.407867 
	C17.958515,46.860558 17.962412,47.917065 17.962990,49.406136 
	C17.962011,51.568115 17.964352,53.297535 17.961910,55.488609 
	C18.271294,60.306171 18.585455,64.662071 18.899616,69.017975 
	C21.948561,70.588249 19.954964,72.388817 19.085693,74.458267 
	C17.566906,74.868088 16.095781,74.955498 14.130417,75.072273 
	C14.130417,64.081291 14.130417,53.280968 14.130417,41.982960 
	C12.067586,41.982960 10.479418,41.982960 8.492733,41.615082 
	C8.431414,40.583889 8.768611,39.920578 9.105808,39.257263 
	C8.739784,38.958992 8.373759,38.660725 8.007735,38.362453 
	C7.003165,39.524506 5.998594,40.686558 4.994024,41.848610 
	C1.540721,42.370098 0.778570,41.024143 3.080286,38.542824 
	C5.257947,36.195236 7.894342,34.273174 10.642134,32.018948 
z"/>
<path fill="#4D4D4D" opacity="1.000000" stroke="none" 
	d="
M85.977646,37.645592 
	C84.434654,36.843952 82.760391,35.730629 81.064888,34.251587 
	C82.644554,35.035217 84.245476,36.184566 85.977646,37.645592 
z"/>
<path fill="#525252" opacity="1.000000" stroke="none" 
	d="
M5.367137,41.922283 
	C5.998594,40.686558 7.003165,39.524506 8.007735,38.362453 
	C8.373759,38.660725 8.739784,38.958992 9.105808,39.257263 
	C8.768611,39.920578 8.431414,40.583889 8.050729,41.547249 
	C7.251578,41.896851 6.495914,41.946404 5.367137,41.922283 
z"/>
<path fill="#4D4D4D" opacity="1.000000" stroke="none" 
	d="
M79.256706,41.907139 
	C79.657166,41.616581 80.318947,41.401360 81.053978,41.508499 
	C80.590828,41.881401 80.054428,41.931938 79.256706,41.907139 
z"/>
<path fill="#4D4D4D" opacity="1.000000" stroke="none" 
	d="
M37.250553,74.843727 
	C37.044846,74.511978 37.189098,74.297058 37.600586,74.063232 
	C37.694393,74.293137 37.605289,74.598541 37.250553,74.843727 
z"/>
<path fill="#4D4D4D" opacity="1.000000" stroke="none" 
	d="
M75.485085,73.912338 
	C75.573837,74.096054 75.339539,74.529999 74.883133,74.886078 
	C74.828026,74.593002 74.995026,74.377777 75.485085,73.912338 
z"/>
<path fill="#4D4D4D" opacity="1.000000" stroke="none" 
	d="
M86.597260,41.772972 
	C86.600586,41.465130 86.828415,41.328426 87.443024,41.095676 
	C87.493797,41.314457 87.157776,41.629284 86.597260,41.772972 
z"/>
<path fill="#4D4D4D" opacity="1.000000" stroke="none" 
	d="
M16.713163,26.128603 
	C16.840113,26.457546 16.620205,26.679453 16.089813,26.888988 
	C16.057220,26.673100 16.252880,26.388083 16.713163,26.128603 
z"/>
<path fill="#484848" opacity="1.000000" stroke="none" 
	d="
M43.710140,2.139414 
	C43.837807,2.461539 43.622650,2.679407 43.104973,2.892636 
	C43.071976,2.683946 43.260262,2.399666 43.710140,2.139414 
z"/>
<path fill="#797979" opacity="1.000000" stroke="none" 
	d="
M52.389271,16.781155 
	C55.251259,19.267756 58.113247,21.754356 61.039978,24.876064 
	C61.155216,25.686460 61.205715,25.861750 61.256214,26.037041 
	C61.185123,28.395851 61.114033,30.754662 60.613441,33.558147 
	C57.504631,34.340183 54.825321,34.677544 52.076633,34.550507 
	C51.977695,28.419407 51.948128,22.752707 52.035313,17.008362 
	C52.152061,16.930716 52.389271,16.781153 52.389271,16.781155 
z"/>
<path fill="#5C5C5C" opacity="1.000000" stroke="none" 
	d="
M52.990349,44.993534 
	C52.809822,44.992031 52.629292,44.990524 52.210037,44.710106 
	C51.969044,44.243908 51.966770,44.056622 51.976952,43.451290 
	C52.052673,41.362194 52.115944,39.691139 52.555729,38.024143 
	C55.625019,38.021961 58.317802,38.015717 61.010582,38.009472 
	C61.308571,39.428699 61.606556,40.847931 61.945377,42.629715 
	C61.660828,49.352085 61.335438,55.711903 61.009136,62.540909 
	C60.338181,61.728054 59.462860,60.508759 59.047230,59.148952 
	C58.454945,57.211189 58.199883,55.170345 57.405804,52.704529 
	C56.966351,51.496021 56.921867,50.756519 56.987492,49.756195 
	C56.399826,48.323551 55.702053,47.151737 55.004280,45.979919 
	C55.004280,45.979919 54.997932,46.001804 54.840164,45.749451 
	C54.118382,45.329243 53.554367,45.161388 52.990349,44.993534 
z"/>
<path fill="#828282" opacity="1.000000" stroke="none" 
	d="
M44.048618,10.081973 
	C44.048618,10.081973 44.532154,10.050459 44.770634,10.007019 
	C47.405910,12.000761 49.802711,14.037941 52.294392,16.428137 
	C52.389271,16.781153 52.152061,16.930716 51.696625,17.181137 
	C51.106743,18.959885 50.972294,20.488209 50.462204,22.010303 
	C47.430389,20.991594 44.774216,19.979118 41.919426,18.617041 
	C41.504887,15.860398 41.288960,13.453358 41.073036,11.046316 
	C41.073036,11.046316 41.010788,11.002428 41.338760,11.081490 
	C42.126804,10.795682 42.586880,10.430813 43.046951,10.065944 
	C43.046951,10.065944 43.006317,10.029340 43.277599,10.084112 
	C43.715462,10.119914 43.882042,10.100944 44.048618,10.081973 
z"/>
<path fill="#4D4D4D" opacity="1.000000" stroke="none" 
	d="
M75.184128,39.016701 
	C73.117134,40.158199 71.422829,41.287106 69.728523,42.416008 
	C73.142563,36.771725 71.063858,32.412453 65.402672,28.891247 
	C66.013069,28.496849 66.623474,28.102453 67.233871,27.708055 
	C71.145813,30.951931 75.057747,34.195805 79.831604,38.154400 
	C77.624893,38.593033 76.590851,38.798569 75.184128,39.016701 
M73.262070,36.813457 
	C73.376579,36.971447 73.491081,37.129440 73.605583,37.287434 
	C73.582359,37.067539 73.559143,36.847649 73.262070,36.813457 
z"/>
<path fill="#6C6C6C" opacity="1.000000" stroke="none" 
	d="
M61.054173,37.743927 
	C58.317802,38.015717 55.625019,38.021961 52.478348,37.653214 
	C52.064972,36.523785 52.105492,35.769348 52.146008,35.014908 
	C54.825321,34.677544 57.504631,34.340183 60.593460,34.001114 
	C61.002972,33.999401 61.152718,33.980133 61.149784,34.352848 
	C61.167149,35.467556 61.187447,36.209545 61.207741,36.951538 
	C61.171082,37.127151 61.134422,37.302765 61.054173,37.743927 
z"/>
<path fill="#4D4D4D" opacity="1.000000" stroke="none" 
	d="
M61.554955,26.066994 
	C61.205715,25.861750 61.155216,25.686460 61.086624,25.237749 
	C64.196045,22.021547 64.259270,24.958122 65.424126,27.648420 
	C63.737087,26.915346 62.795387,26.506147 61.554955,26.066994 
z"/>
<path fill="#3F3F3F" opacity="1.000000" stroke="none" 
	d="
M61.552238,36.954781 
	C61.187447,36.209545 61.167149,35.467556 61.224968,34.359665 
	C62.147385,34.474884 62.991692,34.956001 63.835995,35.437115 
	C63.189575,35.944084 62.543156,36.451054 61.552238,36.954781 
z"/>
<path fill="#5C5C5C" opacity="1.000000" stroke="none" 
	d="
M33.920193,45.957748 
	C33.431595,46.317669 32.943001,46.677586 31.979385,47.387424 
	C31.979385,45.562515 31.979385,44.158871 31.990786,42.049973 
	C32.024025,40.903683 32.045868,40.462646 32.425529,39.973122 
	C35.844646,38.944191 38.905941,37.963741 41.978607,37.418945 
	C42.009838,39.876869 42.029697,41.899143 41.656647,43.945656 
	C39.823078,44.311619 38.382420,44.653339 36.941765,44.995060 
	C36.636536,45.099659 36.389736,45.282928 35.867966,45.737511 
	C35.534565,45.930153 35.065990,45.929806 35.065990,45.929806 
	C35.065990,45.929806 35.049320,45.972191 34.954018,45.773720 
	C34.545872,45.702747 34.233032,45.830246 33.920193,45.957748 
z"/>
<path fill="#3A3A3A" opacity="1.000000" stroke="none" 
	d="
M56.877384,50.017021 
	C56.921867,50.756519 56.966351,51.496021 57.021866,52.605316 
	C57.032902,58.591991 57.032902,64.208870 57.032902,69.896553 
	C56.590172,69.171860 55.115723,67.869995 55.125370,66.579231 
	C55.164455,61.350880 55.660027,56.125942 56.209557,50.452293 
	C56.431953,50.004848 56.877384,50.017021 56.877384,50.017021 
z"/>
<path fill="#3F3F3F" opacity="1.000000" stroke="none" 
	d="
M37.413651,45.000546 
	C38.382420,44.653339 39.823078,44.311619 42.105270,43.968201 
	C45.670399,43.952770 48.393993,43.939030 51.331554,43.945190 
	C51.545521,43.965092 51.964497,43.869331 51.964497,43.869331 
	C51.966770,44.056622 51.969044,44.243908 51.939236,44.710297 
	C47.233280,44.994946 42.559406,45.000488 37.413651,45.000546 
z"/>
<path fill="#3F3F3F" opacity="1.000000" stroke="none" 
	d="
M56.987492,49.756195 
	C56.877384,50.017021 56.431953,50.004848 56.209011,50.002445 
	C55.657345,48.904915 55.328621,47.809792 55.002090,46.347290 
	C55.702053,47.151737 56.399826,48.323551 56.987492,49.756195 
z"/>
<path fill="#3F3F3F" opacity="1.000000" stroke="none" 
	d="
M53.162994,45.239014 
	C53.554367,45.161388 54.118382,45.329243 54.851204,45.746677 
	C54.458549,45.825668 53.897091,45.655083 53.162994,45.239014 
z"/>
<path fill="#353535" opacity="1.000000" stroke="none" 
	d="
M35.051010,46.167038 
	C35.065990,45.929806 35.534565,45.930153 35.768116,45.948620 
	C35.998451,46.142483 35.995232,46.317875 35.991261,46.756599 
	C35.672348,46.814713 35.354187,46.609489 35.051010,46.167038 
z"/>
<path fill="#4E4E4E" opacity="1.000000" stroke="none" 
	d="
M30.942987,49.969261 
	C30.964041,50.138615 30.985094,50.307964 31.013165,51.199127 
	C31.023062,56.615379 31.025940,61.309818 31.028820,66.004257 
	C31.014780,66.770134 31.000740,67.536018 30.523918,68.664688 
	C27.405542,69.035225 24.749945,69.042976 22.094347,69.050735 
	C22.094347,69.050728 21.874317,69.053383 21.892063,68.579681 
	C21.934752,65.400337 21.959692,62.694698 21.992767,59.536533 
	C21.984726,56.067371 21.968548,53.050739 21.968006,49.689339 
	C22.010309,48.885227 22.036978,48.425884 22.454353,47.979141 
	C25.544369,48.650917 28.243679,49.310089 30.942987,49.969261 
z"/>
<path fill="#646464" opacity="1.000000" stroke="none" 
	d="
M31.050034,42.006359 
	C31.050034,42.006359 30.998945,42.494907 30.607832,42.704128 
	C27.174322,41.268955 24.131926,39.624557 21.039177,37.664230 
	C20.314356,36.576618 19.639885,35.804928 19.099045,34.733162 
	C19.475901,33.610889 19.719124,32.788696 19.975609,31.983345 
	C19.988867,32.000187 19.975534,31.962769 20.240849,31.971113 
	C20.682951,31.971622 20.859739,31.963787 21.336580,31.821165 
	C24.103876,28.794344 26.571121,25.902309 29.038368,23.010277 
	C29.038368,23.010277 29.000881,22.998970 29.332027,23.011288 
	C30.107391,23.027573 30.551609,23.031538 30.997646,23.488186 
	C31.018440,26.983541 31.037411,30.026215 31.038067,33.511826 
	C31.029844,36.638634 31.039940,39.322495 31.050034,42.006359 
z"/>
<path fill="#343434" opacity="1.000000" stroke="none" 
	d="
M18.965414,35.033241 
	C19.639885,35.804928 20.314356,36.576618 21.045582,38.073669 
	C21.422773,41.854866 21.743210,44.910702 22.063646,47.966537 
	C22.036978,48.425884 22.010309,48.885227 21.687180,49.969090 
	C21.588692,53.725426 21.786663,56.857243 21.984634,59.989063 
	C21.959692,62.694698 21.934752,65.400337 21.788078,68.543732 
	C20.977587,68.989632 20.288830,68.997765 19.249844,69.011932 
	C18.585455,64.662071 18.271294,60.306171 18.243420,55.241737 
	C18.341908,52.679996 18.154108,50.826786 17.966307,48.973576 
	C17.962412,47.917065 17.958515,46.860558 18.328363,45.336483 
	C20.874687,42.323212 21.094240,40.440907 16.912586,39.733273 
	C16.176399,38.638851 15.578150,37.817913 14.979900,36.996971 
	C15.306727,36.902866 15.578415,36.724689 16.139214,36.145523 
	C16.775694,35.649101 16.956091,35.391323 17.024658,35.055275 
	C17.024658,35.055275 17.008850,35.008526 17.347542,35.030563 
	C18.112629,35.046146 18.539021,35.039696 18.965414,35.033241 
z"/>
<path fill="#5C5C5C" opacity="1.000000" stroke="none" 
	d="
M22.454353,47.979141 
	C21.743210,44.910702 21.422773,41.854866 21.095932,38.389595 
	C24.131926,39.624557 27.174322,41.268955 30.565771,42.946106 
	C30.934942,45.019196 30.955061,47.059525 30.959084,49.534561 
	C28.243679,49.310089 25.544369,48.650917 22.454353,47.979141 
z"/>
<path fill="#353535" opacity="1.000000" stroke="none" 
	d="
M31.420065,65.910309 
	C31.025940,61.309818 31.023062,56.615379 31.040676,51.453629 
	C31.061172,50.986320 31.518373,50.985779 31.758047,50.991615 
	C31.997721,50.997456 32.022686,51.015747 32.022686,51.015747 
	C31.952229,55.949284 31.881769,60.882816 31.420065,65.910309 
z"/>
<path fill="#353535" opacity="1.000000" stroke="none" 
	d="
M31.277027,42.004356 
	C31.039940,39.322495 31.029844,36.638634 31.294655,33.708611 
	C31.720469,34.311825 31.871376,35.161198 32.014603,36.411232 
	C32.027180,37.881798 32.047443,38.951706 32.067707,40.021610 
	C32.045868,40.462646 32.024025,40.903683 31.980095,41.675510 
	C31.958002,42.006302 31.504017,42.002357 31.277027,42.004356 
z"/>
<path fill="#E1E1E1" opacity="1.000000" stroke="none" 
	d="
M22.242107,69.443802 
	C24.749945,69.042976 27.405542,69.035225 30.504215,69.047195 
	C30.947290,69.066917 30.984241,69.039536 30.989403,69.273857 
	C30.994564,69.508179 30.992870,69.979599 30.992870,69.979599 
	C28.125202,69.932022 25.257536,69.884438 22.242107,69.443802 
z"/>
<path fill="#484848" opacity="1.000000" stroke="none" 
	d="
M31.142570,70.218559 
	C30.992870,69.979599 30.994564,69.508179 30.968021,69.273972 
	C31.502258,69.365593 32.063038,69.691422 32.623817,70.017258 
	C32.179970,70.164009 31.736122,70.310760 31.142570,70.218559 
z"/>
<path fill="#353535" opacity="1.000000" stroke="none" 
	d="
M31.986588,50.986382 
	C32.111313,50.545662 32.247169,50.116009 32.383030,49.686359 
	C32.399944,50.045219 32.416859,50.404079 32.228230,50.889343 
	C32.022686,51.015747 31.997721,50.997456 31.986588,50.986382 
z"/>
<path fill="#353535" opacity="1.000000" stroke="none" 
	d="
M34.202980,45.964310 
	C34.233032,45.830246 34.545872,45.702747 34.954605,45.756187 
	C34.862255,45.948376 34.674015,45.959629 34.202980,45.964310 
z"/>
<path fill="#494949" opacity="1.000000" stroke="none" 
	d="
M32.022285,36.010571 
	C31.871376,35.161198 31.720469,34.311825 31.312969,33.265671 
	C31.037411,30.026215 31.018440,26.983541 30.998394,23.232597 
	C30.997736,22.354179 30.998152,22.184036 30.998569,22.013891 
	C36.130253,20.176559 38.084240,15.535551 40.772369,11.161659 
	C41.288960,13.453358 41.504887,15.860398 41.872227,19.072350 
	C42.041237,22.913603 42.058834,25.949942 42.045937,29.385162 
	C41.991711,30.849627 41.967976,31.915215 41.565491,32.994530 
	C38.131920,34.009033 35.077103,35.009800 32.022285,36.010571 
z"/>
<path fill="#3A3A3A" opacity="1.000000" stroke="none" 
	d="
M28.683109,23.028725 
	C26.571121,25.902309 24.103876,28.794344 21.239454,31.648598 
	C20.553364,31.728134 20.264448,31.845451 19.975534,31.962769 
	C19.975534,31.962769 19.988867,32.000187 19.683687,32.011086 
	C18.918020,32.344631 18.457531,32.667278 17.997042,32.989925 
	C17.718534,32.801250 17.440029,32.612579 17.032679,32.200985 
	C20.711842,29.001102 24.519848,26.024137 28.683109,23.028725 
z"/>
<path fill="#494949" opacity="1.000000" stroke="none" 
	d="
M34.866531,16.297089 
	C35.057468,16.606644 35.031067,16.948685 35.004665,17.290726 
	C34.766682,17.218895 34.528698,17.147062 34.290714,17.075232 
	C34.410210,16.826679 34.529705,16.578127 34.866531,16.297089 
z"/>
<path fill="#494949" opacity="1.000000" stroke="none" 
	d="
M42.740845,10.064943 
	C42.586880,10.430813 42.126804,10.795682 41.352783,11.116894 
	C41.504139,10.736807 41.969440,10.400375 42.740845,10.064943 
z"/>
<path fill="#3A3A3A" opacity="1.000000" stroke="none" 
	d="
M30.695297,22.027683 
	C30.998152,22.184036 30.997736,22.354179 30.996572,22.779913 
	C30.551609,23.031538 30.107391,23.027573 29.329769,23.029598 
	C29.461582,22.704216 29.926804,22.372845 30.695297,22.027683 
z"/>
<path fill="#494949" opacity="1.000000" stroke="none" 
	d="
M43.956436,9.901349 
	C43.882042,10.100944 43.715462,10.119914 43.299118,10.107677 
	C43.320988,9.957888 43.592621,9.839307 43.956436,9.901349 
z"/>
<path fill="#525252" opacity="1.000000" stroke="none" 
	d="
M14.654041,37.029396 
	C15.578150,37.817913 16.176399,38.638851 16.892666,39.980293 
	C17.010687,40.500793 16.974155,40.995167 16.974155,40.995167 
	C15.582869,40.473026 14.191581,39.950886 12.800293,39.428745 
	C13.309589,38.639771 13.818886,37.850796 14.654041,37.029396 
z"/>
<path fill="#303030" opacity="1.000000" stroke="none" 
	d="
M17.117069,41.315296 
	C16.974155,40.995167 17.010687,40.500793 17.030605,40.253773 
	C21.094240,40.440907 20.874687,42.323212 18.332224,44.940304 
	C17.728220,43.886269 17.494101,42.760845 17.117069,41.315296 
z"/>
<path fill="#303030" opacity="1.000000" stroke="none" 
	d="
M17.962990,49.406136 
	C18.154108,50.826786 18.341908,52.679996 18.248199,54.780083 
	C17.964352,53.297535 17.962011,51.568115 17.962990,49.406136 
z"/>
<path fill="#525252" opacity="1.000000" stroke="none" 
	d="
M17.889942,33.252602 
	C18.457531,32.667278 18.918020,32.344631 19.670429,31.994244 
	C19.719124,32.788696 19.475901,33.610889 19.099045,34.733162 
	C18.539021,35.039696 18.112629,35.046146 17.366379,35.046562 
	C17.291964,34.532112 17.537405,34.023693 17.889942,33.252602 
z"/>
<path fill="#525252" opacity="1.000000" stroke="none" 
	d="
M16.787369,35.045563 
	C16.956091,35.391323 16.775694,35.649101 16.266161,35.934013 
	C16.215933,35.704895 16.383005,35.370369 16.787369,35.045563 
z"/>
<path fill="#FFFFFF" opacity="1.000000" stroke="none" 
	d="
M51.976952,43.451290 
	C51.964497,43.869331 51.545521,43.965092 51.281387,43.536995 
	C50.955727,41.741352 50.894196,40.373802 50.904644,38.543247 
	C50.930363,32.725670 50.884102,27.371103 50.837841,22.016535 
	C50.972294,20.488209 51.106743,18.959885 51.579880,17.258783 
	C51.948128,22.752707 51.977695,28.419407 52.076633,34.550507 
	C52.105492,35.769348 52.064972,36.523785 52.101837,37.649155 
	C52.115944,39.691139 52.052673,41.362194 51.976952,43.451290 
z"/>
<path fill="#767676" opacity="1.000000" stroke="none" 
	d="
M50.462204,22.010303 
	C50.884102,27.371103 50.930363,32.725670 50.560402,38.492996 
	C48.766766,36.655384 47.549835,34.281948 45.953163,32.199703 
	C44.957451,30.901180 43.388264,30.042402 42.076431,28.986282 
	C42.058834,25.949942 42.041237,22.913603 42.070839,19.421951 
	C44.774216,19.979118 47.430389,20.991594 50.462204,22.010303 
z"/>
<path fill="#484848" opacity="1.000000" stroke="none" 
	d="
M73.399002,36.720604 
	C73.559143,36.847649 73.582359,37.067539 73.605583,37.287434 
	C73.491081,37.129440 73.376579,36.971447 73.399002,36.720604 
z"/>
<path fill="#707070" opacity="1.000000" stroke="none" 
	d="
M42.045937,29.385160 
	C43.388264,30.042402 44.957451,30.901180 45.953163,32.199703 
	C47.549835,34.281948 48.766766,36.655384 50.488426,38.956005 
	C50.894196,40.373802 50.955727,41.741352 51.067421,43.517094 
	C48.393993,43.939030 45.670399,43.952770 42.498180,43.943962 
	C42.029697,41.899143 42.009838,39.876869 41.989567,37.019424 
	C41.974178,35.116436 41.959209,34.048618 41.944241,32.980801 
	C41.967976,31.915215 41.991711,30.849627 42.045937,29.385160 
z"/>
<path fill="#525252" opacity="1.000000" stroke="none" 
	d="
M41.565491,32.994530 
	C41.959209,34.048618 41.974178,35.116436 41.978191,36.583775 
	C38.905941,37.963741 35.844646,38.944191 32.425529,39.973122 
	C32.047443,38.951706 32.027180,37.881798 32.014603,36.411232 
	C35.077103,35.009800 38.131920,34.009033 41.565491,32.994530 
z"/>
<path fill="#303030" opacity="1.000000" stroke="none" 
	d="
M21.992767,59.536533 
	C21.786663,56.857243 21.588692,53.725426 21.671543,50.313858 
	C21.968548,53.050739 21.984726,56.067371 21.992767,59.536533 
z"/>
<path fill="#525252" opacity="1.000000" stroke="none" 
	d="
M20.240849,31.971113 
	C20.264448,31.845451 20.553364,31.728134 20.939404,31.783384 
	C20.859739,31.963787 20.682951,31.971622 20.240849,31.971113 
z"/>
</svg>